<svg width="76" height="76" viewBox="0 0 76 76" fill="none" xmlns="http://www.w3.org/2000/svg">
<g clip-path="url(#clip0_1_79)">
<path d="M27.0156 76.5938C34.0812 76.5938 39.7812 70.8937 39.7812 63.8281V51.0625H27.0156C19.95 51.0625 14.25 56.7625 14.25 63.8281C14.25 70.8937 19.95 76.5938 27.0156 76.5938Z" fill="#0ACF83"/>
<path d="M14.25 38.2969C14.25 31.2313 19.95 25.5312 27.0156 25.5312H39.7812V51.0625H27.0156C19.95 51.0625 14.25 45.3625 14.25 38.2969Z" fill="#A259FF"/>
<path d="M14.25 12.7656C14.25 5.7 19.95 0 27.0156 0H39.7812V25.5312H27.0156C19.95 25.5312 14.25 19.8312 14.25 12.7656Z" fill="#F24E1E"/>
<path d="M39.7812 0H52.5469C59.6125 0 65.3125 5.7 65.3125 12.7656C65.3125 19.8312 59.6125 25.5312 52.5469 25.5312H39.7812V0Z" fill="#FF7262"/>
<path d="M65.3125 38.2969C65.3125 45.3625 59.6125 51.0625 52.5469 51.0625C45.4813 51.0625 39.7812 45.3625 39.7812 38.2969C39.7812 31.2313 45.4813 25.5312 52.5469 25.5312C59.6125 25.5312 65.3125 31.2313 65.3125 38.2969Z" fill="#1ABCFE"/>
</g>
<defs>
<clipPath id="clip0_1_79">
<rect width="76" height="76" fill="white"/>
</clipPath>
</defs>
</svg>
