<svg width="76" height="76" viewBox="0 0 76 76" fill="none" xmlns="http://www.w3.org/2000/svg">
<path d="M16.5834 6.13574L38 3.88721L59.4166 6.13633L76 28.2131L38 72.1126L0 28.2131L16.5834 6.13574Z" fill="#FDB300"/>
<path d="M15.393 28.2131L38 72.1126L0 28.2131H15.393ZM60.607 28.2131L38 72.1126L76 28.2131H60.607Z" fill="#EA6C00"/>
<path d="M15.3929 28.2131H60.607L38 72.1126L15.3929 28.2131Z" fill="#FDAD00"/>
<path d="M38 3.88721L16.5834 6.13574L15.3929 28.2131L38 3.88721ZM38 3.88721L59.4165 6.13574L60.607 28.2131L38 3.88721Z" fill="#FDD231"/>
<path d="M75.9999 28.2131L59.4165 6.13574L60.607 28.2131H75.9999Z" fill="#FDAD00"/>
<path d="M38 3.88721L15.3929 28.2131H60.607L38 3.88721Z" fill="#FEEEB7"/>
<path d="M0 28.2131L16.5834 6.13574L15.393 28.2131H0Z" fill="#FDAD00"/>
</svg>
