<svg width="80" height="80" viewBox="0 0 80 80" fill="none" xmlns="http://www.w3.org/2000/svg">
<path d="M14.1669 1H65.8331C73.6669 1 80 7.33312 80 15.1669V64.8331C80 72.6669 73.6669 79 65.8331 79H14.1669C6.33312 79 0 72.6669 0 64.8331V15.1669C0 7.33312 6.33312 1 14.1669 1Z" fill="#470137"/>
<path d="M42.0669 21.5001L32.0669 38.0001L42.7332 55.5001C42.8 55.6332 42.8332 55.767 42.8 55.9001C42.7669 56.0332 42.6332 55.9332 42.4332 55.967H34.8C34.2669 55.967 33.9 55.9332 33.6669 55.6001C32.9669 54.2001 32.2332 52.8332 31.5332 51.4332C30.8332 50.067 30.0669 48.667 29.2669 47.2332C28.4669 45.8001 27.6669 44.367 26.8669 42.9001H26.8C26.1 44.3332 25.3332 45.767 24.5669 47.2001C23.8052 48.6191 23.0495 50.0414 22.3 51.467C21.5332 52.867 20.7669 54.3001 20 55.667C19.8669 56.0001 19.6 56.0332 19.2332 56.0332H11.9C11.7669 56.0332 11.6669 56.1001 11.6669 55.9332C11.652 55.8709 11.6502 55.8062 11.6616 55.7431C11.673 55.6801 11.6973 55.6201 11.7332 55.567L22.1 38.567L12 21.467C11.9 21.3332 11.8669 21.2001 11.9332 21.1332C12 21.0332 12.1332 21.0001 12.2669 21.0001H19.8332C20 21.0001 20.1669 21.0332 20.3 21.067C20.4332 21.1332 20.5332 21.2332 20.6332 21.367C21.2669 22.8001 22 24.2332 22.7669 25.667C23.5669 27.1001 24.3332 28.5001 25.1669 29.9001C25.9669 31.3001 26.7 32.7001 27.4 34.1332H27.4669C28.1669 32.667 28.9 31.2332 29.6332 29.8332C30.3669 28.4332 31.1332 27.0332 31.9 25.6332C32.6669 24.2332 33.4 22.8001 34.1332 21.4332C34.1669 21.3001 34.2332 21.167 34.3332 21.1001C34.4669 21.0332 34.6 21.0001 34.7669 21.0332H41.8C41.8395 21.0244 41.8803 21.0234 41.9201 21.0304C41.9599 21.0374 41.998 21.0521 42.032 21.0739C42.0661 21.0956 42.0956 21.1238 42.1187 21.157C42.1419 21.1901 42.1583 21.2275 42.1669 21.267C42.2 21.3001 42.1332 21.4332 42.0669 21.5001ZM57.4669 56.667C55 56.7001 52.5332 56.2001 50.3 55.167C48.2 54.2001 46.4669 52.6001 45.2669 50.6332C44.0332 48.6001 43.4332 46.067 43.4332 43.0332C43.4 40.567 44.0332 38.1332 45.2669 36.0001C46.5332 33.8332 48.3669 32.0332 50.5669 30.8332C52.9 29.5332 55.7 28.9001 59 28.9001C59.1669 28.9001 59.4 28.9001 59.7 28.9332C60 28.967 60.3331 28.967 60.7331 29.0001V18.467C60.7331 18.2332 60.8332 18.1001 61.0669 18.1001H67.8331C68 18.067 68.1332 18.2001 68.1669 18.3332V50.1332C68.1669 50.7332 68.2 51.4001 68.2331 52.1332C68.3 52.8332 68.3332 53.5001 68.3669 54.067C68.3669 54.3001 68.2669 54.5001 68.0331 54.6001C66.2873 55.3339 64.4649 55.8705 62.6 56.2001C60.9 56.5001 59.2 56.667 57.4669 56.667ZM60.7331 50.0001V35.3332C60.4331 35.267 60.1332 35.2001 59.8332 35.167C59.4677 35.1279 59.1006 35.1055 58.7332 35.1001C57.4332 35.1001 56.1332 35.367 54.9669 35.967C53.8277 36.5343 52.8523 37.3832 52.1332 38.4332C51.4 39.5001 51.0332 40.9332 51.0332 42.667C51.0042 43.8368 51.1965 45.0016 51.6 46.1001C51.9332 47.0001 52.4332 47.8001 53.1 48.467C53.7427 49.0802 54.5186 49.5365 55.3669 49.8001C56.2669 50.1001 57.2 50.2332 58.1332 50.2332C58.6332 50.2332 59.1 50.2001 59.5332 50.167C59.9669 50.2001 60.3331 50.1332 60.7331 50.0001Z" fill="#FF61F6"/>
</svg>
